# xmcd
# Track frame offsets:
# 150
# 18270
# 38543
# 53378
# 72245
# 92289
# 113542
# 133684
# 154939
#
# Disc length: 2359 seconds
# Revision: 0
# Processed by: cddbd v1.4PL0 Copyright (c) Steve Scherf et al.
# Submitted via: VisiTrax 2.9.5.181 - For more info visit www.synapsa.com
#
DISCID=5e093509
DTITLE=Bill Cody - Take Me
DYEAR=2003
DGENRE=Blues
TTITLE0=If Johnnie Were Here Today
TTITLE1=Back It Up And Put It Here
TTITLE2=I'm A Lover Man
TTITLE3=You Got My Money
TTITLE4=Take Me
TTITLE5=Work That Thang
TTITLE6=It Was A House Until You Made It A Home
TTITLE7=I Want You
TTITLE8=If Johnnie Were Here Today (Long Version)
EXTD=
EXTT0=
EXTT1=
EXTT2=
EXTT3=
EXTT4=
EXTT5=
EXTT6=
EXTT7=
EXTT8=
PLAYORDER=
